<?xml version="1.0" encoding="UTF-8" standalone="no"?>
<!DOCTYPE svg PUBLIC "-//W3C//DTD SVG 1.1//EN"
 "http://www.w3.org/Graphics/SVG/1.1/DTD/svg11.dtd">
<!-- Generated by graphviz version 2.40.1 (20161225.0304)
 -->
<!-- Title: data_linkage Pages: 1 -->
<svg width="1523pt" height="676pt"
 viewBox="0.00 0.00 1522.60 676.20" xmlns="http://www.w3.org/2000/svg" xmlns:xlink="http://www.w3.org/1999/xlink">
<g id="graph0" class="graph" transform="scale(1 1) rotate(0) translate(28.8 647.4)">
<title>data_linkage</title>
<polygon fill="#ffffff" stroke="transparent" points="-28.8,28.8 -28.8,-647.4 1493.8,-647.4 1493.8,28.8 -28.8,28.8"/>
<g id="clust1" class="cluster">
<title>cluster_raw</title>
<path fill="#fff8e6" stroke="#e0a800" d="M192,-497.4C192,-497.4 1441,-497.4 1441,-497.4 1447,-497.4 1453,-503.4 1453,-509.4 1453,-509.4 1453,-598.6 1453,-598.6 1453,-604.6 1447,-610.6 1441,-610.6 1441,-610.6 192,-610.6 192,-610.6 186,-610.6 180,-604.6 180,-598.6 180,-598.6 180,-509.4 180,-509.4 180,-503.4 186,-497.4 192,-497.4"/>
<text text-anchor="middle" x="816.5" y="-594" font-family="Helvetica,sans-Serif" font-size="14.00" fill="#8a6d00">data/raw</text>
</g>
<g id="clust4" class="cluster">
<title>cluster_myco</title>
<path fill="#eaf7ee" stroke="#5cb87a" d="M20,-340C20,-340 973,-340 973,-340 979,-340 985,-346 985,-352 985,-352 985,-440 985,-440 985,-446 979,-452 973,-452 973,-452 20,-452 20,-452 14,-452 8,-446 8,-440 8,-440 8,-352 8,-352 8,-346 14,-340 20,-340"/>
<text text-anchor="middle" x="496.5" y="-436.3" font-family="Helvetica,sans-Serif" font-size="13.00" fill="#3c8c57">make mycobiome</text>
</g>
<g id="clust7" class="cluster">
<title>cluster_other</title>
<path fill="#eaf7ee" stroke="#5cb87a" d="M1005,-340C1005,-340 1445,-340 1445,-340 1451,-340 1457,-346 1457,-352 1457,-352 1457,-440 1457,-440 1457,-446 1451,-452 1445,-452 1445,-452 1005,-452 1005,-452 999,-452 993,-446 993,-440 993,-440 993,-352 993,-352 993,-346 999,-340 1005,-340"/>
<text text-anchor="middle" x="1225" y="-436.3" font-family="Helvetica,sans-Serif" font-size="13.00" fill="#3c8c57">make dietary / make characteristics</text>
</g>
<g id="clust11" class="cluster">
<title>cluster_out</title>
<path fill="#fff5f5" stroke="#e0747a" d="M761,-8C761,-8 1294,-8 1294,-8 1300,-8 1306,-14 1306,-20 1306,-20 1306,-123.2 1306,-123.2 1306,-129.2 1300,-135.2 1294,-135.2 1294,-135.2 761,-135.2 761,-135.2 755,-135.2 749,-129.2 749,-123.2 749,-123.2 749,-20 749,-20 749,-14 755,-8 761,-8"/>
<text text-anchor="middle" x="1027.5" y="-119.5" font-family="Helvetica,sans-Serif" font-size="13.00" fill="#b04a50">Downstream</text>
</g>
<!-- r_meta -->
<g id="node1" class="node">
<title>r_meta</title>
<path fill="#fff3cd" stroke="#e0a800" d="M905.9712,-570.0014C905.9712,-570.0014 680.0288,-570.0014 680.0288,-570.0014 674.0288,-570.0014 668.0288,-564.0014 668.0288,-558.0014 668.0288,-558.0014 668.0288,-525.1986 668.0288,-525.1986 668.0288,-519.1986 674.0288,-513.1986 680.0288,-513.1986 680.0288,-513.1986 905.9712,-513.1986 905.9712,-513.1986 911.9712,-513.1986 917.9712,-519.1986 917.9712,-525.1986 917.9712,-525.1986 917.9712,-558.0014 917.9712,-558.0014 917.9712,-564.0014 911.9712,-570.0014 905.9712,-570.0014"/>
<text text-anchor="middle" x="793" y="-546.4" font-family="Helvetica,sans-Serif" font-size="16.00" fill="#000000">MBI sample IDs meta</text>
<text text-anchor="middle" x="793" y="-527.2" font-family="Helvetica,sans-Serif" font-size="16.00" fill="#000000">key: Sample_ID | Participant ID</text>
</g>
<!-- i_meta -->
<g id="node6" class="node">
<title>i_meta</title>
<path fill="#ffffff" stroke="#5cb87a" d="M957.4741,-412.6014C957.4741,-412.6014 764.5259,-412.6014 764.5259,-412.6014 758.5259,-412.6014 752.5259,-406.6014 752.5259,-400.6014 752.5259,-400.6014 752.5259,-367.7986 752.5259,-367.7986 752.5259,-361.7986 758.5259,-355.7986 764.5259,-355.7986 764.5259,-355.7986 957.4741,-355.7986 957.4741,-355.7986 963.4741,-355.7986 969.4741,-361.7986 969.4741,-367.7986 969.4741,-367.7986 969.4741,-400.6014 969.4741,-400.6014 969.4741,-406.6014 963.4741,-412.6014 957.4741,-412.6014"/>
<text text-anchor="middle" x="861" y="-389" font-family="Helvetica,sans-Serif" font-size="16.00" fill="#000000">meta_data.rds</text>
<text text-anchor="middle" x="861" y="-369.8" font-family="Helvetica,sans-Serif" font-size="16.00" fill="#000000">Sample_ID, Participant_ID</text>
</g>
<!-- r_meta&#45;&gt;i_meta -->
<g id="edge4" class="edge">
<title>r_meta&#45;&gt;i_meta</title>
<path fill="none" stroke="#777777" stroke-width=".9" d="M805.3143,-513.096C816.8198,-486.4642 834.0115,-446.6705 846.2457,-418.3518"/>
<polygon fill="#777777" stroke="#777777" stroke-width=".9" points="848.7773,-412.4919 848.8763,-419.0707 847.5875,-415.2459 846.3977,-417.9999 846.3977,-417.9999 846.3977,-417.9999 847.5875,-415.2459 843.9191,-416.9291 848.7773,-412.4919 848.7773,-412.4919"/>
<text text-anchor="middle" x="802.7077" y="-466.4071" font-family="Helvetica,sans-Serif" font-size="12.00" fill="#000000">OPT_NN</text>
</g>
<!-- r_taxa -->
<g id="node2" class="node">
<title>r_taxa</title>
<path fill="#fff3cd" stroke="#e0a800" d="M619.6681,-570.0014C619.6681,-570.0014 448.3319,-570.0014 448.3319,-570.0014 442.3319,-570.0014 436.3319,-564.0014 436.3319,-558.0014 436.3319,-558.0014 436.3319,-525.1986 436.3319,-525.1986 436.3319,-519.1986 442.3319,-513.1986 448.3319,-513.1986 448.3319,-513.1986 619.6681,-513.1986 619.6681,-513.1986 625.6681,-513.1986 631.6681,-519.1986 631.6681,-525.1986 631.6681,-525.1986 631.6681,-558.0014 631.6681,-558.0014 631.6681,-564.0014 625.6681,-570.0014 619.6681,-570.0014"/>
<text text-anchor="middle" x="534" y="-546.4" font-family="Helvetica,sans-Serif" font-size="16.00" fill="#000000">Stool mycobiota abund.</text>
<text text-anchor="middle" x="534" y="-527.2" font-family="Helvetica,sans-Serif" font-size="16.00" fill="#000000">key: Sample_ID</text>
</g>
<!-- i_taxa -->
<g id="node8" class="node">
<title>i_taxa</title>
<path fill="#ffffff" stroke="#5cb87a" d="M704.2137,-412.6014C704.2137,-412.6014 453.7863,-412.6014 453.7863,-412.6014 447.7863,-412.6014 441.7863,-406.6014 441.7863,-400.6014 441.7863,-400.6014 441.7863,-367.7986 441.7863,-367.7986 441.7863,-361.7986 447.7863,-355.7986 453.7863,-355.7986 453.7863,-355.7986 704.2137,-355.7986 704.2137,-355.7986 710.2137,-355.7986 716.2137,-361.7986 716.2137,-367.7986 716.2137,-367.7986 716.2137,-400.6014 716.2137,-400.6014 716.2137,-406.6014 710.2137,-412.6014 704.2137,-412.6014"/>
<text text-anchor="middle" x="579" y="-389" font-family="Helvetica,sans-Serif" font-size="16.00" fill="#000000">taxa_long_list.rds</text>
<text text-anchor="middle" x="579" y="-369.8" font-family="Helvetica,sans-Serif" font-size="16.00" fill="#000000">+ genus/family/phylum/species.csv</text>
</g>
<!-- r_taxa&#45;&gt;i_taxa -->
<g id="edge5" class="edge">
<title>r_taxa&#45;&gt;i_taxa</title>
<path fill="none" stroke="#777777" stroke-width=".9" d="M542.1492,-513.096C549.7631,-486.4642 561.1399,-446.6705 569.2361,-418.3518"/>
<polygon fill="#777777" stroke="#777777" stroke-width=".9" points="570.9115,-412.4919 571.8581,-419.003 570.0868,-415.3763 569.2621,-418.2608 569.2621,-418.2608 569.2621,-418.2608 570.0868,-415.3763 566.6661,-417.5186 570.9115,-412.4919 570.9115,-412.4919"/>
<text text-anchor="middle" x="526.856" y="-466.4071" font-family="Helvetica,sans-Serif" font-size="12.00" fill="#000000">Sample_ID</text>
</g>
<!-- i_alpha -->
<g id="node9" class="node">
<title>i_alpha</title>
<path fill="#ffffff" stroke="#5cb87a" d="M393.4232,-402.9005C393.4232,-402.9005 284.5768,-402.9005 284.5768,-402.9005 278.5768,-402.9005 272.5768,-396.9005 272.5768,-390.9005 272.5768,-390.9005 272.5768,-377.4995 272.5768,-377.4995 272.5768,-371.4995 278.5768,-365.4995 284.5768,-365.4995 284.5768,-365.4995 393.4232,-365.4995 393.4232,-365.4995 399.4232,-365.4995 405.4232,-371.4995 405.4232,-377.4995 405.4232,-377.4995 405.4232,-390.9005 405.4232,-390.9005 405.4232,-396.9005 399.4232,-402.9005 393.4232,-402.9005"/>
<text text-anchor="middle" x="339" y="-379.4" font-family="Helvetica,sans-Serif" font-size="16.00" fill="#000000">alpha_long.rds</text>
</g>
<!-- r_taxa&#45;&gt;i_alpha -->
<g id="edge6" class="edge">
<title>r_taxa&#45;&gt;i_alpha</title>
<path fill="none" stroke="#777777" stroke-width=".9" d="M498.687,-513.096C460.9233,-482.614 401.7981,-434.8893 367.0773,-406.8634"/>
<polygon fill="#777777" stroke="#777777" stroke-width=".9" points="362.1371,-402.8758 368.5018,-404.5434 364.4715,-404.7601 366.8059,-406.6444 366.8059,-406.6444 366.8059,-406.6444 364.4715,-404.7601 365.11,-408.7454 362.1371,-402.8758 362.1371,-402.8758"/>
<text text-anchor="middle" x="399.3305" y="-461.5314" font-family="Helvetica,sans-Serif" font-size="12.00" fill="#000000">alpha sheet</text>
</g>
<!-- r_inflam -->
<g id="node3" class="node">
<title>r_inflam</title>
<path fill="#fff3cd" stroke="#e0a800" d="M388,-570.0014C388,-570.0014 208,-570.0014 208,-570.0014 202,-570.0014 196,-564.0014 196,-558.0014 196,-558.0014 196,-525.1986 196,-525.1986 196,-519.1986 202,-513.1986 208,-513.1986 208,-513.1986 388,-513.1986 388,-513.1986 394,-513.1986 400,-519.1986 400,-525.1986 400,-525.1986 400,-558.0014 400,-558.0014 400,-564.0014 394,-570.0014 388,-570.0014"/>
<text text-anchor="middle" x="298" y="-546.4" font-family="Helvetica,sans-Serif" font-size="16.00" fill="#000000">Inflammatory biomarkers</text>
<text text-anchor="middle" x="298" y="-527.2" font-family="Helvetica,sans-Serif" font-size="16.00" fill="#000000">key: participant_id</text>
</g>
<!-- i_inflam -->
<g id="node7" class="node">
<title>i_inflam</title>
<path fill="#ffffff" stroke="#5cb87a" d="M224.38,-412.6014C224.38,-412.6014 35.62,-412.6014 35.62,-412.6014 29.62,-412.6014 23.62,-406.6014 23.62,-400.6014 23.62,-400.6014 23.62,-367.7986 23.62,-367.7986 23.62,-361.7986 29.62,-355.7986 35.62,-355.7986 35.62,-355.7986 224.38,-355.7986 224.38,-355.7986 230.38,-355.7986 236.38,-361.7986 236.38,-367.7986 236.38,-367.7986 236.38,-400.6014 236.38,-400.6014 236.38,-406.6014 230.38,-412.6014 224.38,-412.6014"/>
<text text-anchor="middle" x="130" y="-389" font-family="Helvetica,sans-Serif" font-size="16.00" fill="#000000">inflammatory_markers.rds</text>
<text text-anchor="middle" x="130" y="-369.8" font-family="Helvetica,sans-Serif" font-size="16.00" fill="#000000">Participant_ID</text>
</g>
<!-- r_inflam&#45;&gt;i_inflam -->
<g id="edge7" class="edge">
<title>r_inflam&#45;&gt;i_inflam</title>
<path fill="none" stroke="#777777" stroke-width=".9" d="M267.5765,-513.096C238.6754,-486.0185 195.2519,-445.3349 164.9445,-416.9397"/>
<polygon fill="#777777" stroke="#777777" stroke-width=".9" points="160.1972,-412.4919 166.4218,-414.6238 162.3865,-414.543 164.5757,-416.5942 164.5757,-416.5942 164.5757,-416.5942 162.3865,-414.543 162.7297,-418.5645 160.1972,-412.4919 160.1972,-412.4919"/>
<text text-anchor="middle" x="176.1194" y="-466.3047" font-family="Helvetica,sans-Serif" font-size="12.00" fill="#000000">Participant_ID</text>
</g>
<!-- r_diet -->
<g id="node4" class="node">
<title>r_diet</title>
<path fill="#fff3cd" stroke="#e0a800" d="M1178.4024,-570.0014C1178.4024,-570.0014 965.5976,-570.0014 965.5976,-570.0014 959.5976,-570.0014 953.5976,-564.0014 953.5976,-558.0014 953.5976,-558.0014 953.5976,-525.1986 953.5976,-525.1986 953.5976,-519.1986 959.5976,-513.1986 965.5976,-513.1986 965.5976,-513.1986 1178.4024,-513.1986 1178.4024,-513.1986 1184.4024,-513.1986 1190.4024,-519.1986 1190.4024,-525.1986 1190.4024,-525.1986 1190.4024,-558.0014 1190.4024,-558.0014 1190.4024,-564.0014 1184.4024,-570.0014 1178.4024,-570.0014"/>
<text text-anchor="middle" x="1072" y="-546.4" font-family="Helvetica,sans-Serif" font-size="16.00" fill="#000000">Dietary data</text>
<text text-anchor="middle" x="1072" y="-527.2" font-family="Helvetica,sans-Serif" font-size="16.00" fill="#000000">key: Participant ID (ESHA ID)</text>
</g>
<!-- p_diet -->
<g id="node10" class="node">
<title>p_diet</title>
<path fill="#ffffff" stroke="#5cb87a" d="M1169.42,-412.6014C1169.42,-412.6014 1020.58,-412.6014 1020.58,-412.6014 1014.58,-412.6014 1008.58,-406.6014 1008.58,-400.6014 1008.58,-400.6014 1008.58,-367.7986 1008.58,-367.7986 1008.58,-361.7986 1014.58,-355.7986 1020.58,-355.7986 1020.58,-355.7986 1169.42,-355.7986 1169.42,-355.7986 1175.42,-355.7986 1181.42,-361.7986 1181.42,-367.7986 1181.42,-367.7986 1181.42,-400.6014 1181.42,-400.6014 1181.42,-406.6014 1175.42,-412.6014 1169.42,-412.6014"/>
<text text-anchor="middle" x="1095" y="-389" font-family="Helvetica,sans-Serif" font-size="16.00" fill="#000000">dietary_cleaned.xlsx</text>
<text text-anchor="middle" x="1095" y="-369.8" font-family="Helvetica,sans-Serif" font-size="16.00" fill="#000000">participant&#45;day rows</text>
</g>
<!-- r_diet&#45;&gt;p_diet -->
<g id="edge8" class="edge">
<title>r_diet&#45;&gt;p_diet</title>
<path fill="none" stroke="#777777" stroke-width=".9" d="M1076.1651,-513.096C1080.0404,-486.5756 1085.8229,-447.0033 1089.9576,-418.7078"/>
<polygon fill="#777777" stroke="#777777" stroke-width=".9" points="1090.8659,-412.4919 1092.6699,-418.8193 1090.4321,-415.4604 1089.9982,-418.4289 1089.9982,-418.4289 1089.9982,-418.4289 1090.4321,-415.4604 1087.3266,-418.0384 1090.8659,-412.4919 1090.8659,-412.4919"/>
<text text-anchor="middle" x="1059.2055" y="-466.2404" font-family="Helvetica,sans-Serif" font-size="12.00" fill="#000000">OPT_NN</text>
</g>
<!-- r_char -->
<g id="node5" class="node">
<title>r_char</title>
<path fill="#fff3cd" stroke="#e0a800" d="M1425.2385,-570.0014C1425.2385,-570.0014 1238.7615,-570.0014 1238.7615,-570.0014 1232.7615,-570.0014 1226.7615,-564.0014 1226.7615,-558.0014 1226.7615,-558.0014 1226.7615,-525.1986 1226.7615,-525.1986 1226.7615,-519.1986 1232.7615,-513.1986 1238.7615,-513.1986 1238.7615,-513.1986 1425.2385,-513.1986 1425.2385,-513.1986 1431.2385,-513.1986 1437.2385,-519.1986 1437.2385,-525.1986 1437.2385,-525.1986 1437.2385,-558.0014 1437.2385,-558.0014 1437.2385,-564.0014 1431.2385,-570.0014 1425.2385,-570.0014"/>
<text text-anchor="middle" x="1332" y="-546.4" font-family="Helvetica,sans-Serif" font-size="16.00" fill="#000000">Participant characteristics</text>
<text text-anchor="middle" x="1332" y="-527.2" font-family="Helvetica,sans-Serif" font-size="16.00" fill="#000000">key: participant_id</text>
</g>
<!-- p_char -->
<g id="node11" class="node">
<title>p_char</title>
<path fill="#ffffff" stroke="#5cb87a" d="M1428.5876,-412.6014C1428.5876,-412.6014 1229.4124,-412.6014 1229.4124,-412.6014 1223.4124,-412.6014 1217.4124,-406.6014 1217.4124,-400.6014 1217.4124,-400.6014 1217.4124,-367.7986 1217.4124,-367.7986 1217.4124,-361.7986 1223.4124,-355.7986 1229.4124,-355.7986 1229.4124,-355.7986 1428.5876,-355.7986 1428.5876,-355.7986 1434.5876,-355.7986 1440.5876,-361.7986 1440.5876,-367.7986 1440.5876,-367.7986 1440.5876,-400.6014 1440.5876,-400.6014 1440.5876,-406.6014 1434.5876,-412.6014 1428.5876,-412.6014"/>
<text text-anchor="middle" x="1329" y="-389" font-family="Helvetica,sans-Serif" font-size="16.00" fill="#000000">cleaned_characteristics.csv</text>
<text text-anchor="middle" x="1329" y="-369.8" font-family="Helvetica,sans-Serif" font-size="16.00" fill="#000000">one row per participant</text>
</g>
<!-- r_char&#45;&gt;p_char -->
<g id="edge9" class="edge">
<title>r_char&#45;&gt;p_char</title>
<path fill="none" stroke="#777777" stroke-width=".9" d="M1331.4567,-513.096C1330.9513,-486.5756 1330.197,-447.0033 1329.6577,-418.7078"/>
<polygon fill="#777777" stroke="#777777" stroke-width=".9" points="1329.5392,-412.4919 1332.3532,-418.4393 1329.5965,-415.4914 1329.6537,-418.4908 1329.6537,-418.4908 1329.6537,-418.4908 1329.5965,-415.4914 1326.9542,-418.5423 1329.5392,-412.4919 1329.5392,-412.4919"/>
<text text-anchor="middle" x="1306.1627" y="-466.2404" font-family="Helvetica,sans-Serif" font-size="12.00" fill="#000000">OPT_NN</text>
</g>
<!-- i_meta&#45;&gt;i_taxa -->
<g id="edge10" class="edge">
<title>i_meta&#45;&gt;i_taxa</title>
<path fill="none" stroke="#777777" stroke-width=".9" stroke-dasharray="5,2" d="M752.5649,-384.2C742.5874,-384.2 732.6099,-384.2 722.6323,-384.2"/>
<polygon fill="#777777" stroke="#777777" stroke-width=".9" points="716.4199,-384.2 722.42,-381.5001 719.4199,-384.2 722.4199,-384.2001 722.4199,-384.2001 722.4199,-384.2001 719.4199,-384.2 722.4199,-386.9001 716.4199,-384.2 716.4199,-384.2"/>
<text text-anchor="middle" x="734.3248" y="-373.4" font-family="Helvetica,sans-Serif" font-size="12.00" fill="#000000">metadata</text>
</g>
<!-- m_merged -->
<g id="node12" class="node">
<title>m_merged</title>
<path fill="#ffffff" stroke="#5b8def" d="M1004.0064,-255.2014C1004.0064,-255.2014 759.9936,-255.2014 759.9936,-255.2014 753.9936,-255.2014 747.9936,-249.2014 747.9936,-243.2014 747.9936,-243.2014 747.9936,-210.3986 747.9936,-210.3986 747.9936,-204.3986 753.9936,-198.3986 759.9936,-198.3986 759.9936,-198.3986 1004.0064,-198.3986 1004.0064,-198.3986 1010.0064,-198.3986 1016.0064,-204.3986 1016.0064,-210.3986 1016.0064,-210.3986 1016.0064,-243.2014 1016.0064,-243.2014 1016.0064,-249.2014 1010.0064,-255.2014 1004.0064,-255.2014"/>
<text text-anchor="middle" x="882" y="-231.6" font-family="Helvetica,sans-Serif" font-size="16.00" fill="#000000">merged.csv</text>
<text text-anchor="middle" x="882" y="-212.4" font-family="Helvetica,sans-Serif" font-size="16.00" fill="#000000">sample&#45;level (mycobiome anchor)</text>
</g>
<!-- i_taxa&#45;&gt;m_merged -->
<g id="edge11" class="edge">
<title>i_taxa&#45;&gt;m_merged</title>
<path fill="none" stroke="#2e5fb8" stroke-width="1.2" d="M633.5203,-355.8782C686.644,-328.2819 767.2133,-286.4285 822.1006,-257.916"/>
<polygon fill="#2e5fb8" stroke="#2e5fb8" stroke-width="1.2" points="827.6627,-255.0267 823.5829,-260.1887 825.0465,-256.4984 822.3843,-257.8814 822.3382,-257.7927 822.2921,-257.7039 824.9543,-256.321 821.0935,-255.3967 827.6627,-255.0267 827.6627,-255.0267"/>
</g>
<!-- i_alpha&#45;&gt;m_merged -->
<g id="edge12" class="edge">
<title>i_alpha&#45;&gt;m_merged</title>
<path fill="none" stroke="#777777" stroke-width=".9" d="M370.4627,-365.5574C386.1437,-356.8631 405.6377,-346.9308 424,-340 482.5323,-317.9073 634.3026,-281.871 747.1888,-256.4"/>
<polygon fill="#777777" stroke="#777777" stroke-width=".9" points="753.2102,-255.043 747.9506,-258.9961 750.2836,-255.7026 747.357,-256.3621 747.357,-256.3621 747.357,-256.3621 750.2836,-255.7026 746.7634,-253.7282 753.2102,-255.043 753.2102,-255.043"/>
</g>
<!-- p_diet&#45;&gt;m_merged -->
<g id="edge14" class="edge">
<title>p_diet&#45;&gt;m_merged</title>
<path fill="none" stroke="#777777" stroke-width=".9" d="M1056.4273,-355.696C1019.4833,-328.3956 963.8226,-287.2642 925.3593,-258.8411"/>
<polygon fill="#777777" stroke="#777777" stroke-width=".9" points="920.2857,-255.0919 926.7158,-256.4863 922.6985,-256.8748 925.1112,-258.6578 925.1112,-258.6578 925.1112,-258.6578 922.6985,-256.8748 923.5065,-260.8292 920.2857,-255.0919 920.2857,-255.0919"/>
</g>
<!-- m_all -->
<g id="node13" class="node">
<title>m_all</title>
<path fill="#ffffff" stroke="#5b8def" d="M1323.5732,-255.2014C1323.5732,-255.2014 1100.4268,-255.2014 1100.4268,-255.2014 1094.4268,-255.2014 1088.4268,-249.2014 1088.4268,-243.2014 1088.4268,-243.2014 1088.4268,-210.3986 1088.4268,-210.3986 1088.4268,-204.3986 1094.4268,-198.3986 1100.4268,-198.3986 1100.4268,-198.3986 1323.5732,-198.3986 1323.5732,-198.3986 1329.5732,-198.3986 1335.5732,-204.3986 1335.5732,-210.3986 1335.5732,-210.3986 1335.5732,-243.2014 1335.5732,-243.2014 1335.5732,-249.2014 1329.5732,-255.2014 1323.5732,-255.2014"/>
<text text-anchor="middle" x="1212" y="-231.6" font-family="Helvetica,sans-Serif" font-size="16.00" fill="#000000">participants_all.csv</text>
<text text-anchor="middle" x="1212" y="-212.4" font-family="Helvetica,sans-Serif" font-size="16.00" fill="#000000">participant&#45;level (chars anchor)</text>
</g>
<!-- p_diet&#45;&gt;m_all -->
<g id="edge16" class="edge">
<title>p_diet&#45;&gt;m_all</title>
<path fill="none" stroke="#777777" stroke-width=".9" d="M1116.1878,-355.696C1136.1497,-328.8413 1166.0596,-288.6036 1187.1406,-260.2433"/>
<polygon fill="#777777" stroke="#777777" stroke-width=".9" points="1190.9698,-255.0919 1189.5573,-261.518 1189.1801,-257.4996 1187.3904,-259.9073 1187.3904,-259.9073 1187.3904,-259.9073 1189.1801,-257.4996 1185.2234,-258.2965 1190.9698,-255.0919 1190.9698,-255.0919"/>
</g>
<!-- p_char&#45;&gt;m_merged -->
<g id="edge13" class="edge">
<title>p_char&#45;&gt;m_merged</title>
<path fill="none" stroke="#777777" stroke-width=".9" d="M1248.8274,-355.9692C1169.7021,-328.1072 1049.1225,-285.6481 968.0262,-257.092"/>
<polygon fill="#777777" stroke="#777777" stroke-width=".9" points="962.2566,-255.0604 968.8128,-254.5065 965.0863,-256.0568 967.916,-257.0533 967.916,-257.0533 967.916,-257.0533 965.0863,-256.0568 967.0192,-259.6 962.2566,-255.0604 962.2566,-255.0604"/>
</g>
<!-- p_char&#45;&gt;m_all -->
<g id="edge15" class="edge">
<title>p_char&#45;&gt;m_all</title>
<path fill="none" stroke="#777777" stroke-width=".9" d="M1307.8122,-355.696C1287.8503,-328.8413 1257.9404,-288.6036 1236.8594,-260.2433"/>
<polygon fill="#777777" stroke="#777777" stroke-width=".9" points="1233.0302,-255.0919 1238.7766,-258.2965 1234.8199,-257.4996 1236.6096,-259.9073 1236.6096,-259.9073 1236.6096,-259.9073 1234.8199,-257.4996 1234.4427,-261.518 1233.0302,-255.0919 1233.0302,-255.0919"/>
</g>
<!-- app -->
<g id="node14" class="node">
<title>app</title>
<path fill="#fbe0e1" stroke="#e0747a" d="M1279.6473,-97.4011C1279.6473,-97.4011 1096.3527,-97.4011 1096.3527,-97.4011 1090.3527,-97.4011 1084.3527,-91.4011 1084.3527,-85.4011 1084.3527,-85.4011 1084.3527,-34.1989 1084.3527,-34.1989 1084.3527,-28.1989 1090.3527,-22.1989 1096.3527,-22.1989 1096.3527,-22.1989 1279.6473,-22.1989 1279.6473,-22.1989 1285.6473,-22.1989 1291.6473,-28.1989 1291.6473,-34.1989 1291.6473,-34.1989 1291.6473,-85.4011 1291.6473,-85.4011 1291.6473,-91.4011 1285.6473,-97.4011 1279.6473,-97.4011"/>
<text text-anchor="middle" x="1188" y="-74.2" font-family="Helvetica,sans-Serif" font-size="16.00" fill="#000000">Shiny dashboard</text>
<text text-anchor="middle" x="1188" y="-55" font-family="Helvetica,sans-Serif" font-size="16.00" fill="#000000">merged + participants_all</text>
<text text-anchor="middle" x="1188" y="-35.8" font-family="Helvetica,sans-Serif" font-size="16.00" fill="#000000">+ inflammatory_markers</text>
</g>
<!-- m_merged&#45;&gt;app -->
<g id="edge17" class="edge">
<title>m_merged&#45;&gt;app</title>
<path fill="none" stroke="#777777" stroke-width=".9" d="M942.7564,-198.5588C979.233,-181.1508 1026.3037,-157.884 1067,-135.2 1086.0703,-124.5703 1106.3642,-112.3141 1124.7743,-100.8143"/>
<polygon fill="#777777" stroke="#777777" stroke-width=".9" points="1129.9144,-97.5928 1126.2643,-103.067 1127.3724,-99.186 1124.8304,-100.7792 1124.8304,-100.7792 1124.8304,-100.7792 1127.3724,-99.186 1123.3965,-98.4914 1129.9144,-97.5928 1129.9144,-97.5928"/>
</g>
<!-- stats -->
<g id="node15" class="node">
<title>stats</title>
<path fill="#fbe0e1" stroke="#e0747a" d="M1036.84,-88.2014C1036.84,-88.2014 775.16,-88.2014 775.16,-88.2014 769.16,-88.2014 763.16,-82.2014 763.16,-76.2014 763.16,-76.2014 763.16,-43.3986 763.16,-43.3986 763.16,-37.3986 769.16,-31.3986 775.16,-31.3986 775.16,-31.3986 1036.84,-31.3986 1036.84,-31.3986 1042.84,-31.3986 1048.84,-37.3986 1048.84,-43.3986 1048.84,-43.3986 1048.84,-76.2014 1048.84,-76.2014 1048.84,-82.2014 1042.84,-88.2014 1036.84,-88.2014"/>
<text text-anchor="middle" x="906" y="-64.6" font-family="Helvetica,sans-Serif" font-size="16.00" fill="#000000">Quarto stats site</text>
<text text-anchor="middle" x="906" y="-45.4" font-family="Helvetica,sans-Serif" font-size="16.00" fill="#000000">reads intermediate/processed tables</text>
</g>
<!-- m_merged&#45;&gt;stats -->
<g id="edge19" class="edge">
<title>m_merged&#45;&gt;stats</title>
<path fill="none" stroke="#777777" stroke-width=".9" d="M886.0713,-198.4707C890.2087,-169.6808 896.6224,-125.0525 901.0508,-94.2382"/>
<polygon fill="#777777" stroke="#777777" stroke-width=".9" points="901.9088,-88.2682 903.7277,-94.5913 901.482,-91.2377 901.0552,-94.2072 901.0552,-94.2072 901.0552,-94.2072 901.482,-91.2377 898.3826,-93.8231 901.9088,-88.2682 901.9088,-88.2682"/>
</g>
<!-- m_audit -->
<g id="node16" class="node">
<title>m_audit</title>
<text text-anchor="middle" x="526" y="-222" font-family="Helvetica,sans-Serif" font-size="16.00" fill="#000000">participant_id_normalization_audit.csv</text>
</g>
<!-- m_merged&#45;&gt;m_audit -->
<g id="edge21" class="edge">
<title>m_merged&#45;&gt;m_audit</title>
<path fill="none" stroke="#777777" stroke-width=".9" stroke-dasharray="1,5" d="M839.282,-255.1483C806.0595,-274.5082 758.0234,-296.7893 712,-297.5 655.8671,-298.3668 596.0484,-269.6434 559.843,-248.548"/>
<polygon fill="#777777" stroke="#777777" stroke-width=".9" points="554.6758,-245.4954 561.2151,-246.2226 557.2588,-247.0213 559.8417,-248.5473 559.8417,-248.5473 559.8417,-248.5473 557.2588,-247.0213 558.4683,-250.8719 554.6758,-245.4954 554.6758,-245.4954"/>
<text text-anchor="middle" x="672.1502" y="-300.3095" font-family="Helvetica,sans-Serif" font-size="12.00" fill="#000000">ID audit</text>
</g>
<!-- m_all&#45;&gt;app -->
<g id="edge18" class="edge">
<title>m_all&#45;&gt;app</title>
<path fill="none" stroke="#777777" stroke-width=".9" d="M1207.9287,-198.4707C1204.208,-172.5809 1198.6466,-133.8829 1194.3435,-103.9404"/>
<polygon fill="#777777" stroke="#777777" stroke-width=".9" points="1193.4455,-97.6916 1196.9716,-103.2465 1193.8723,-100.6611 1194.2991,-103.6306 1194.2991,-103.6306 1194.2991,-103.6306 1193.8723,-100.6611 1191.6265,-104.0147 1193.4455,-97.6916 1193.4455,-97.6916"/>
</g>
<!-- m_all&#45;&gt;stats -->
<g id="edge20" class="edge">
<title>m_all&#45;&gt;stats</title>
<path fill="none" stroke="#777777" stroke-width=".9" d="M1160.0913,-198.4707C1105.4975,-168.6761 1019.8215,-121.9183 963.2856,-91.0637"/>
<polygon fill="#777777" stroke="#777777" stroke-width=".9" points="957.9074,-88.1285 964.4676,-88.6329 960.5407,-89.5657 963.1741,-91.0029 963.1741,-91.0029 963.1741,-91.0029 960.5407,-89.5657 961.8806,-93.3729 957.9074,-88.1285 957.9074,-88.1285"/>
</g>
<!-- gap1 -->
<!-- m_audit&#45;&gt;gap1 -->
<!-- gap2 -->
<!-- gap1&#45;&gt;gap2 -->
<!-- gap2&#45;&gt;m_merged -->
</g>
</svg>

