<?xml version="1.0" encoding="UTF-8" standalone="no"?>
<!DOCTYPE svg PUBLIC "-//W3C//DTD SVG 1.1//EN"
 "http://www.w3.org/Graphics/SVG/1.1/DTD/svg11.dtd">
<!-- Generated by graphviz version 2.40.1 (20161225.0304)
 -->
<!-- Title: pipeline_overview Pages: 1 -->
<svg width="703pt" height="311pt"
 viewBox="0.00 0.00 703.25 311.00" xmlns="http://www.w3.org/2000/svg" xmlns:xlink="http://www.w3.org/1999/xlink">
<g id="graph0" class="graph" transform="scale(1 1) rotate(0) translate(4 307)">
<title>pipeline_overview</title>
<polygon fill="#ffffff" stroke="transparent" points="-4,4 -4,-307 699.2467,-307 699.2467,4 -4,4"/>
<g id="clust1" class="cluster">
<title>cluster_legend</title>
<path fill="#ffffff" stroke="#cccccc" d="M20,-214C20,-214 675.2467,-214 675.2467,-214 681.2467,-214 687.2467,-220 687.2467,-226 687.2467,-226 687.2467,-283 687.2467,-283 687.2467,-289 681.2467,-295 675.2467,-295 675.2467,-295 20,-295 20,-295 14,-295 8,-289 8,-283 8,-283 8,-226 8,-226 8,-220 14,-214 20,-214"/>
<text text-anchor="middle" x="347.6233" y="-281.1" font-family="Helvetica,sans-Serif" font-size="11.00" fill="#666666">Legend</text>
</g>
<!-- raw -->
<g id="node1" class="node">
<title>raw</title>
<defs>
<linearGradient id="l_0" gradientUnits="userSpaceOnUse" x1="63.5624" y1="-65" x2="63.5624" y2="-105" >
<stop offset="0" style="stop-color:#fff3cd;stop-opacity:1.;"/>
<stop offset="1" style="stop-color:#ffd666;stop-opacity:1.;"/>
</linearGradient>
</defs>
<polygon fill="url(#l_0)" stroke="#e0a800" stroke-width="1.2" points="104.2418,-101 101.2418,-105 80.2418,-105 77.2418,-101 22.883,-101 22.883,-65 104.2418,-65 104.2418,-101"/>
<text text-anchor="middle" x="63.5624" y="-78.8" font-family="Helvetica,sans-Serif" font-size="14.00" fill="#000000">data/raw</text>
</g>
<!-- myco -->
<g id="node2" class="node">
<title>myco</title>
<defs>
<linearGradient id="l_1" gradientUnits="userSpaceOnUse" x1="227.906" y1="-130" x2="227.906" y2="-166" >
<stop offset="0" style="stop-color:#d4edda;stop-opacity:1.;"/>
<stop offset="1" style="stop-color:#a8e0bb;stop-opacity:1.;"/>
</linearGradient>
</defs>
<path fill="url(#l_1)" stroke="#5cb87a" stroke-width="1.2" d="M284.581,-166C284.581,-166 171.231,-166 171.231,-166 165.231,-166 159.231,-160 159.231,-154 159.231,-154 159.231,-142 159.231,-142 159.231,-136 165.231,-130 171.231,-130 171.231,-130 284.581,-130 284.581,-130 290.581,-130 296.581,-136 296.581,-142 296.581,-142 296.581,-154 296.581,-154 296.581,-160 290.581,-166 284.581,-166"/>
<text text-anchor="middle" x="227.906" y="-143.8" font-family="Helvetica,sans-Serif" font-size="14.00" fill="#000000">make mycobiome</text>
</g>
<!-- raw&#45;&gt;myco -->
<g id="edge1" class="edge">
<title>raw&#45;&gt;myco</title>
<path fill="none" stroke="#999999" stroke-width="1.2" d="M64.2467,-101.1061C64.2467,-120.3391 64.2467,-148 64.2467,-148 64.2467,-148 151.9741,-148 151.9741,-148"/>
<polygon fill="#999999" stroke="#999999" stroke-width="1.2" points="158.9741,-148 151.9741,-151.1501 155.4741,-148.1 151.9741,-148.1001 151.9741,-148.0001 151.9741,-147.9001 155.4741,-147.9 151.974,-144.8501 158.9741,-148 158.9741,-148"/>
</g>
<!-- diet -->
<g id="node3" class="node">
<title>diet</title>
<defs>
<linearGradient id="l_2" gradientUnits="userSpaceOnUse" x1="227.906" y1="0" x2="227.906" y2="-36" >
<stop offset="0" style="stop-color:#d4edda;stop-opacity:1.;"/>
<stop offset="1" style="stop-color:#a8e0bb;stop-opacity:1.;"/>
</linearGradient>
</defs>
<path fill="url(#l_2)" stroke="#5cb87a" stroke-width="1.2" d="M270.0281,-36C270.0281,-36 185.7839,-36 185.7839,-36 179.7839,-36 173.7839,-30 173.7839,-24 173.7839,-24 173.7839,-12 173.7839,-12 173.7839,-6 179.7839,0 185.7839,0 185.7839,0 270.0281,0 270.0281,0 276.0281,0 282.0281,-6 282.0281,-12 282.0281,-12 282.0281,-24 282.0281,-24 282.0281,-30 276.0281,-36 270.0281,-36"/>
<text text-anchor="middle" x="227.906" y="-13.8" font-family="Helvetica,sans-Serif" font-size="14.00" fill="#000000">make dietary</text>
</g>
<!-- raw&#45;&gt;diet -->
<g id="edge2" class="edge">
<title>raw&#45;&gt;diet</title>
<path fill="none" stroke="#999999" stroke-width="1.2" d="M64.2467,-64.8939C64.2467,-45.6609 64.2467,-18 64.2467,-18 64.2467,-18 166.4098,-18 166.4098,-18"/>
<polygon fill="#999999" stroke="#999999" stroke-width="1.2" points="173.4098,-18 166.4099,-21.1501 169.9098,-18.1 166.4098,-18.1001 166.4098,-18.0001 166.4098,-17.9001 169.9098,-17.9 166.4098,-14.8501 173.4098,-18 173.4098,-18"/>
</g>
<!-- chars -->
<g id="node4" class="node">
<title>chars</title>
<defs>
<linearGradient id="l_3" gradientUnits="userSpaceOnUse" x1="227.906" y1="-65" x2="227.906" y2="-101" >
<stop offset="0" style="stop-color:#d4edda;stop-opacity:1.;"/>
<stop offset="1" style="stop-color:#a8e0bb;stop-opacity:1.;"/>
</linearGradient>
</defs>
<path fill="url(#l_3)" stroke="#5cb87a" stroke-width="1.2" d="M293.469,-101C293.469,-101 162.343,-101 162.343,-101 156.343,-101 150.343,-95 150.343,-89 150.343,-89 150.343,-77 150.343,-77 150.343,-71 156.343,-65 162.343,-65 162.343,-65 293.469,-65 293.469,-65 299.469,-65 305.469,-71 305.469,-77 305.469,-77 305.469,-89 305.469,-89 305.469,-95 299.469,-101 293.469,-101"/>
<text text-anchor="middle" x="227.906" y="-78.8" font-family="Helvetica,sans-Serif" font-size="14.00" fill="#000000">make characteristics</text>
</g>
<!-- raw&#45;&gt;chars -->
<g id="edge3" class="edge">
<title>raw&#45;&gt;chars</title>
<path fill="none" stroke="#999999" stroke-width="1.2" d="M104.6093,-83C104.6093,-83 143.2479,-83 143.2479,-83"/>
<polygon fill="#999999" stroke="#999999" stroke-width="1.2" points="150.2479,-83 143.2479,-86.1501 146.7479,-83.1 143.2479,-83.1001 143.2479,-83.0001 143.2479,-82.9001 146.7479,-82.9 143.2478,-79.8501 150.2479,-83 150.2479,-83"/>
</g>
<!-- merge -->
<g id="node5" class="node">
<title>merge</title>
<defs>
<linearGradient id="l_4" gradientUnits="userSpaceOnUse" x1="425.8909" y1="-27.3985" x2="425.8909" y2="-78.6015" >
<stop offset="0" style="stop-color:#d6e4ff;stop-opacity:1.;"/>
<stop offset="1" style="stop-color:#afc9f7;stop-opacity:1.;"/>
</linearGradient>
</defs>
<path fill="url(#l_4)" stroke="#5b8def" stroke-width="1.2" d="M491.2988,-78.6015C491.2988,-78.6015 360.483,-78.6015 360.483,-78.6015 354.483,-78.6015 348.483,-72.6015 348.483,-66.6015 348.483,-66.6015 348.483,-39.3985 348.483,-39.3985 348.483,-33.3985 354.483,-27.3985 360.483,-27.3985 360.483,-27.3985 491.2988,-27.3985 491.2988,-27.3985 497.2988,-27.3985 503.2988,-33.3985 503.2988,-39.3985 503.2988,-39.3985 503.2988,-66.6015 503.2988,-66.6015 503.2988,-72.6015 497.2988,-78.6015 491.2988,-78.6015"/>
<text text-anchor="middle" x="425.8909" y="-57.2" font-family="Helvetica,sans-Serif" font-size="14.00" fill="#000000">make merge</text>
<text text-anchor="middle" x="425.8909" y="-40.4" font-family="Helvetica,sans-Serif" font-size="14.00" fill="#000000">(combine + ID audit)</text>
</g>
<!-- myco&#45;&gt;merge -->
<g id="edge4" class="edge">
<title>myco&#45;&gt;merge</title>
<path fill="none" stroke="#999999" stroke-width="1.2" d="M296.6536,-136.2667C328.4317,-136.2667 359.2467,-136.2667 359.2467,-136.2667 359.2467,-136.2667 359.2467,-85.8897 359.2467,-85.8897"/>
<polygon fill="#999999" stroke="#999999" stroke-width="1.2" points="359.2467,-78.8897 362.3968,-85.8896 359.3467,-82.3897 359.3468,-85.8897 359.2468,-85.8897 359.1468,-85.8897 359.1467,-82.3897 356.0968,-85.8897 359.2467,-78.8897 359.2467,-78.8897"/>
</g>
<!-- stats -->
<g id="node7" class="node">
<title>stats</title>
<defs>
<linearGradient id="l_5" gradientUnits="userSpaceOnUse" x1="612.6135" y1="-97.3985" x2="612.6135" y2="-148.6015" >
<stop offset="0" style="stop-color:#fbe0e1;stop-opacity:1.;"/>
<stop offset="1" style="stop-color:#f5bfc2;stop-opacity:1.;"/>
</linearGradient>
</defs>
<path fill="url(#l_5)" stroke="#e0747a" stroke-width="1.2" d="M649.0746,-148.6015C649.0746,-148.6015 576.1524,-148.6015 576.1524,-148.6015 570.1524,-148.6015 564.1524,-142.6015 564.1524,-136.6015 564.1524,-136.6015 564.1524,-109.3985 564.1524,-109.3985 564.1524,-103.3985 570.1524,-97.3985 576.1524,-97.3985 576.1524,-97.3985 649.0746,-97.3985 649.0746,-97.3985 655.0746,-97.3985 661.0746,-103.3985 661.0746,-109.3985 661.0746,-109.3985 661.0746,-136.6015 661.0746,-136.6015 661.0746,-142.6015 655.0746,-148.6015 649.0746,-148.6015"/>
<text text-anchor="middle" x="612.6135" y="-127.2" font-family="Helvetica,sans-Serif" font-size="14.00" fill="#000000">make stats</text>
<text text-anchor="middle" x="612.6135" y="-110.4" font-family="Helvetica,sans-Serif" font-size="14.00" fill="#000000">Quarto site</text>
</g>
<!-- myco&#45;&gt;stats -->
<g id="edge7" class="edge">
<title>myco&#45;&gt;stats</title>
<path fill="none" stroke="#999999" stroke-width="1.2" d="M296.684,-142.5333C296.684,-142.5333 557.2112,-142.5333 557.2112,-142.5333"/>
<polygon fill="#999999" stroke="#999999" stroke-width="1.2" points="564.2112,-142.5333 557.2112,-145.6834 560.7112,-142.6334 557.2112,-142.6334 557.2112,-142.5334 557.2112,-142.4334 560.7112,-142.4334 557.2111,-139.3834 564.2112,-142.5333 564.2112,-142.5333"/>
</g>
<!-- diet&#45;&gt;merge -->
<g id="edge5" class="edge">
<title>diet&#45;&gt;merge</title>
<path fill="none" stroke="#999999" stroke-width="1.2" d="M282.0062,-30.1333C282.0062,-30.1333 341.4764,-30.1333 341.4764,-30.1333"/>
<polygon fill="#999999" stroke="#999999" stroke-width="1.2" points="348.4764,-30.1333 341.4765,-33.2834 344.9764,-30.2334 341.4764,-30.2334 341.4764,-30.1334 341.4764,-30.0334 344.9764,-30.0334 341.4764,-26.9834 348.4764,-30.1333 348.4764,-30.1333"/>
</g>
<!-- diet&#45;&gt;stats -->
<g id="edge8" class="edge">
<title>diet&#45;&gt;stats</title>
<path fill="none" stroke="#999999" stroke-width="1.2" d="M282.2269,-33.0667C305.4189,-33.0667 327.2467,-33.0667 327.2467,-33.0667 327.2467,-33.0667 327.2467,-120.3333 327.2467,-120.3333 327.2467,-120.3333 557.2049,-120.3333 557.2049,-120.3333"/>
<polygon fill="#999999" stroke="#999999" stroke-width="1.2" points="564.2049,-120.3333 557.205,-123.4834 560.7049,-120.4334 557.2049,-120.4334 557.2049,-120.3334 557.2049,-120.2334 560.7049,-120.2334 557.2049,-117.1834 564.2049,-120.3333 564.2049,-120.3333"/>
</g>
<!-- chars&#45;&gt;merge -->
<g id="edge6" class="edge">
<title>chars&#45;&gt;merge</title>
<path fill="none" stroke="#999999" stroke-width="1.2" d="M305.5866,-71.9C305.5866,-71.9 341.4343,-71.9 341.4343,-71.9"/>
<polygon fill="#999999" stroke="#999999" stroke-width="1.2" points="348.4343,-71.9 341.4343,-75.0501 344.9343,-72 341.4343,-72.0001 341.4343,-71.9001 341.4343,-71.8001 344.9343,-71.8 341.4342,-68.7501 348.4343,-71.9 348.4343,-71.9"/>
</g>
<!-- chars&#45;&gt;stats -->
<g id="edge9" class="edge">
<title>chars&#45;&gt;stats</title>
<path fill="none" stroke="#999999" stroke-width="1.2" d="M305.8854,-88C418.4831,-88 613.2467,-88 613.2467,-88 613.2467,-88 613.2467,-90.1958 613.2467,-90.1958"/>
<polygon fill="#999999" stroke="#999999" stroke-width="1.2" points="613.2467,-97.1958 610.0968,-90.1958 613.1467,-93.6958 613.1468,-90.1958 613.2468,-90.1958 613.3468,-90.1958 613.3467,-93.6958 616.3968,-90.1959 613.2467,-97.1958 613.2467,-97.1958"/>
</g>
<!-- app -->
<g id="node6" class="node">
<title>app</title>
<defs>
<linearGradient id="l_6" gradientUnits="userSpaceOnUse" x1="612.6135" y1="-16.3985" x2="612.6135" y2="-67.6015" >
<stop offset="0" style="stop-color:#fbe0e1;stop-opacity:1.;"/>
<stop offset="1" style="stop-color:#f5bfc2;stop-opacity:1.;"/>
</linearGradient>
</defs>
<path fill="url(#l_6)" stroke="#e0747a" stroke-width="1.2" d="M667.1513,-67.6015C667.1513,-67.6015 558.0757,-67.6015 558.0757,-67.6015 552.0757,-67.6015 546.0757,-61.6015 546.0757,-55.6015 546.0757,-55.6015 546.0757,-28.3985 546.0757,-28.3985 546.0757,-22.3985 552.0757,-16.3985 558.0757,-16.3985 558.0757,-16.3985 667.1513,-16.3985 667.1513,-16.3985 673.1513,-16.3985 679.1513,-22.3985 679.1513,-28.3985 679.1513,-28.3985 679.1513,-55.6015 679.1513,-55.6015 679.1513,-61.6015 673.1513,-67.6015 667.1513,-67.6015"/>
<text text-anchor="middle" x="612.6135" y="-46.2" font-family="Helvetica,sans-Serif" font-size="14.00" fill="#000000">make app</text>
<text text-anchor="middle" x="612.6135" y="-29.4" font-family="Helvetica,sans-Serif" font-size="14.00" fill="#000000">Shiny dashboard</text>
</g>
<!-- merge&#45;&gt;app -->
<g id="edge11" class="edge">
<title>merge&#45;&gt;app</title>
<path fill="none" stroke="#999999" stroke-width="1.2" d="M503.186,-47.5C503.186,-47.5 539.0888,-47.5 539.0888,-47.5"/>
<polygon fill="#999999" stroke="#999999" stroke-width="1.2" points="546.0888,-47.5 539.0888,-50.6501 542.5888,-47.6 539.0888,-47.6001 539.0888,-47.5001 539.0888,-47.4001 542.5888,-47.4 539.0887,-44.3501 546.0888,-47.5 546.0888,-47.5"/>
</g>
<!-- merge&#45;&gt;stats -->
<g id="edge10" class="edge">
<title>merge&#45;&gt;stats</title>
<path fill="none" stroke="#999999" stroke-width="1.2" d="M494.2467,-78.7973C494.2467,-94.1514 494.2467,-110.6667 494.2467,-110.6667 494.2467,-110.6667 557.1277,-110.6667 557.1277,-110.6667"/>
<polygon fill="#999999" stroke="#999999" stroke-width="1.2" points="564.1277,-110.6667 557.1277,-113.8168 560.6277,-110.7667 557.1277,-110.7668 557.1277,-110.6668 557.1277,-110.5668 560.6277,-110.5667 557.1276,-107.5168 564.1277,-110.6667 564.1277,-110.6667"/>
</g>
<!-- l_raw -->
<g id="node8" class="node">
<title>l_raw</title>
<defs>
<linearGradient id="l_7" gradientUnits="userSpaceOnUse" x1="63.5624" y1="-226" x2="63.5624" y2="-266" >
<stop offset="0" style="stop-color:#fff3cd;stop-opacity:1.;"/>
<stop offset="1" style="stop-color:#ffd666;stop-opacity:1.;"/>
</linearGradient>
</defs>
<polygon fill="url(#l_7)" stroke="#e0a800" stroke-width="1.2" points="107.1873,-262 104.1873,-266 83.1873,-266 80.1873,-262 19.9375,-262 19.9375,-226 107.1873,-226 107.1873,-262"/>
<text text-anchor="middle" x="63.5624" y="-239.8" font-family="Helvetica,sans-Serif" font-size="14.00" fill="#000000">Raw data</text>
</g>
<!-- l_proc -->
<g id="node9" class="node">
<title>l_proc</title>
<defs>
<linearGradient id="l_8" gradientUnits="userSpaceOnUse" x1="227.906" y1="-226" x2="227.906" y2="-262" >
<stop offset="0" style="stop-color:#d4edda;stop-opacity:1.;"/>
<stop offset="1" style="stop-color:#a8e0bb;stop-opacity:1.;"/>
</linearGradient>
</defs>
<path fill="url(#l_8)" stroke="#5cb87a" stroke-width="1.2" d="M288.8878,-262C288.8878,-262 166.9242,-262 166.9242,-262 160.9242,-262 154.9242,-256 154.9242,-250 154.9242,-250 154.9242,-238 154.9242,-238 154.9242,-232 160.9242,-226 166.9242,-226 166.9242,-226 288.8878,-226 288.8878,-226 294.8878,-226 300.8878,-232 300.8878,-238 300.8878,-238 300.8878,-250 300.8878,-250 300.8878,-256 294.8878,-262 288.8878,-262"/>
<text text-anchor="middle" x="227.906" y="-239.8" font-family="Helvetica,sans-Serif" font-size="14.00" fill="#000000">Step 1: Processing</text>
</g>
<!-- l_raw&#45;&gt;l_proc -->
<!-- l_merge -->
<g id="node10" class="node">
<title>l_merge</title>
<defs>
<linearGradient id="l_9" gradientUnits="userSpaceOnUse" x1="425.8909" y1="-226" x2="425.8909" y2="-262" >
<stop offset="0" style="stop-color:#d6e4ff;stop-opacity:1.;"/>
<stop offset="1" style="stop-color:#afc9f7;stop-opacity:1.;"/>
</linearGradient>
</defs>
<path fill="url(#l_9)" stroke="#5b8def" stroke-width="1.2" d="M471.8067,-262C471.8067,-262 379.9751,-262 379.9751,-262 373.9751,-262 367.9751,-256 367.9751,-250 367.9751,-250 367.9751,-238 367.9751,-238 367.9751,-232 373.9751,-226 379.9751,-226 379.9751,-226 471.8067,-226 471.8067,-226 477.8067,-226 483.8067,-232 483.8067,-238 483.8067,-238 483.8067,-250 483.8067,-250 483.8067,-256 477.8067,-262 471.8067,-262"/>
<text text-anchor="middle" x="425.8909" y="-239.8" font-family="Helvetica,sans-Serif" font-size="14.00" fill="#000000">Step 2: Merge</text>
</g>
<!-- l_proc&#45;&gt;l_merge -->
<!-- l_out -->
<g id="node11" class="node">
<title>l_out</title>
<defs>
<linearGradient id="l_10" gradientUnits="userSpaceOnUse" x1="612.6135" y1="-226" x2="612.6135" y2="-262" >
<stop offset="0" style="stop-color:#fbe0e1;stop-opacity:1.;"/>
<stop offset="1" style="stop-color:#f5bfc2;stop-opacity:1.;"/>
</linearGradient>
</defs>
<path fill="url(#l_10)" stroke="#e0747a" stroke-width="1.2" d="M663.3802,-262C663.3802,-262 561.8468,-262 561.8468,-262 555.8468,-262 549.8468,-256 549.8468,-250 549.8468,-250 549.8468,-238 549.8468,-238 549.8468,-232 555.8468,-226 561.8468,-226 561.8468,-226 663.3802,-226 663.3802,-226 669.3802,-226 675.3802,-232 675.3802,-238 675.3802,-238 675.3802,-250 675.3802,-250 675.3802,-256 669.3802,-262 663.3802,-262"/>
<text text-anchor="middle" x="612.6135" y="-239.8" font-family="Helvetica,sans-Serif" font-size="14.00" fill="#000000">Step 3: Outputs</text>
</g>
<!-- l_merge&#45;&gt;l_out -->
</g>
</svg>

