<?xml version="1.0" encoding="UTF-8" standalone="no"?>
<!DOCTYPE svg PUBLIC "-//W3C//DTD SVG 1.1//EN"
 "http://www.w3.org/Graphics/SVG/1.1/DTD/svg11.dtd">
<!-- Generated by graphviz version 2.40.1 (20161225.0304)
 -->
<!-- Title: pipeline_detailed Pages: 1 -->
<svg width="942pt" height="721pt"
 viewBox="0.00 0.00 942.46 721.40" xmlns="http://www.w3.org/2000/svg" xmlns:xlink="http://www.w3.org/1999/xlink">
<g id="graph0" class="graph" transform="scale(1 1) rotate(0) translate(4 717.4)">
<title>pipeline_detailed</title>
<polygon fill="#ffffff" stroke="transparent" points="-4,4 -4,-717.4 938.4591,-717.4 938.4591,4 -4,4"/>
<text text-anchor="middle" x="467.2296" y="-689.6" font-family="Helvetica,sans-Serif" font-size="22.00" fill="#333333">Pipeline Detailed</text>
<g id="clust1" class="cluster">
<title>cluster_myco</title>
<path fill="#eaf7ee" stroke="#5cb87a" d="M215.4585,-527C215.4585,-527 725.0291,-527 725.0291,-527 731.0291,-527 737.0291,-533 737.0291,-539 737.0291,-539 737.0291,-659 737.0291,-659 737.0291,-665 731.0291,-671 725.0291,-671 725.0291,-671 215.4585,-671 215.4585,-671 209.4585,-671 203.4585,-665 203.4585,-659 203.4585,-659 203.4585,-539 203.4585,-539 203.4585,-533 209.4585,-527 215.4585,-527"/>
<text text-anchor="middle" x="470.2438" y="-656.2" font-family="Helvetica,sans-Serif" font-size="12.00" fill="#3c8c57">make mycobiome</text>
</g>
<g id="clust2" class="cluster">
<title>cluster_diet</title>
<path fill="#eaf7ee" stroke="#5cb87a" d="M237.1626,-8C237.1626,-8 730.8343,-8 730.8343,-8 736.8343,-8 742.8343,-14 742.8343,-20 742.8343,-20 742.8343,-256 742.8343,-256 742.8343,-262 736.8343,-268 730.8343,-268 730.8343,-268 237.1626,-268 237.1626,-268 231.1626,-268 225.1626,-262 225.1626,-256 225.1626,-256 225.1626,-20 225.1626,-20 225.1626,-14 231.1626,-8 237.1626,-8"/>
<text text-anchor="middle" x="483.9985" y="-253.2" font-family="Helvetica,sans-Serif" font-size="12.00" fill="#3c8c57">make dietary</text>
</g>
<g id="clust3" class="cluster">
<title>cluster_char</title>
<path fill="#eaf7ee" stroke="#5cb87a" d="M393.8389,-282C393.8389,-282 501.1157,-282 501.1157,-282 507.1157,-282 513.1157,-288 513.1157,-294 513.1157,-294 513.1157,-356 513.1157,-356 513.1157,-362 507.1157,-368 501.1157,-368 501.1157,-368 393.8389,-368 393.8389,-368 387.8389,-368 381.8389,-362 381.8389,-356 381.8389,-356 381.8389,-294 381.8389,-294 381.8389,-288 387.8389,-282 393.8389,-282"/>
<text text-anchor="middle" x="447.4774" y="-353.2" font-family="Helvetica,sans-Serif" font-size="12.00" fill="#3c8c57">make characteristics</text>
</g>
<g id="clust4" class="cluster">
<title>cluster_merge</title>
<path fill="#eaf1fe" stroke="#5b8def" d="M566.0858,-366C566.0858,-366 739.9951,-366 739.9951,-366 745.9951,-366 751.9951,-372 751.9951,-378 751.9951,-378 751.9951,-507 751.9951,-507 751.9951,-513 745.9951,-519 739.9951,-519 739.9951,-519 566.0858,-519 566.0858,-519 560.0858,-519 554.0858,-513 554.0858,-507 554.0858,-507 554.0858,-378 554.0858,-378 554.0858,-372 560.0858,-366 566.0858,-366"/>
<text text-anchor="middle" x="653.0405" y="-504.2" font-family="Helvetica,sans-Serif" font-size="12.00" fill="#2e5fb8">make merge</text>
</g>
<!-- raw -->
<g id="node1" class="node">
<title>raw</title>
<defs>
<linearGradient id="l_0" gradientUnits="userSpaceOnUse" x1="83.7292" y1="-287.3985" x2="83.7292" y2="-344.6015" >
<stop offset="0" style="stop-color:#fff3cd;stop-opacity:1.;"/>
<stop offset="1" style="stop-color:#ffd666;stop-opacity:1.;"/>
</linearGradient>
</defs>
<polygon fill="url(#l_0)" stroke="#e0a800" points="167.6884,-340.6015 164.6884,-344.6015 143.6884,-344.6015 140.6884,-340.6015 -.2299,-340.6015 -.2299,-287.3985 167.6884,-287.3985 167.6884,-340.6015"/>
<text text-anchor="middle" x="83.7292" y="-323.9" font-family="Helvetica,sans-Serif" font-size="11.00" fill="#000000">data/raw</text>
<text text-anchor="middle" x="83.7292" y="-310.7" font-family="Helvetica,sans-Serif" font-size="11.00" fill="#000000">(meta, taxa, biomarkers,</text>
<text text-anchor="middle" x="83.7292" y="-297.5" font-family="Helvetica,sans-Serif" font-size="11.00" fill="#000000">dietary intake, characteristics)</text>
</g>
<!-- m1 -->
<g id="node2" class="node">
<title>m1</title>
<path fill="#ffffff" stroke="#5cb87a" d="M315.0749,-577C315.0749,-577 229.2525,-577 229.2525,-577 223.2525,-577 217.2525,-571 217.2525,-565 217.2525,-565 217.2525,-553 217.2525,-553 217.2525,-547 223.2525,-541 229.2525,-541 229.2525,-541 315.0749,-541 315.0749,-541 321.0749,-541 327.0749,-547 327.0749,-553 327.0749,-553 327.0749,-565 327.0749,-565 327.0749,-571 321.0749,-577 315.0749,-577"/>
<text text-anchor="middle" x="272.1637" y="-555.7" font-family="Helvetica,sans-Serif" font-size="11.00" fill="#000000">01_data_import.R</text>
</g>
<!-- raw&#45;&gt;m1 -->
<g id="edge9" class="edge">
<title>raw&#45;&gt;m1</title>
<path fill="none" stroke="#999999" d="M167.5001,-336.4C199.5064,-336.4 228.4591,-336.4 228.4591,-336.4 228.4591,-336.4 228.4591,-534.7837 228.4591,-534.7837"/>
<polygon fill="#999999" stroke="#999999" points="228.4591,-540.7837 225.7592,-534.7837 228.4591,-537.7837 228.4592,-534.7837 228.4592,-534.7837 228.4592,-534.7837 228.4591,-537.7837 231.1592,-534.7838 228.4591,-540.7837 228.4591,-540.7837"/>
</g>
<!-- d0 -->
<g id="node6" class="node">
<title>d0</title>
<path fill="#ffffff" stroke="#5cb87a" d="M293.1659,-232C293.1659,-232 251.1615,-232 251.1615,-232 245.1615,-232 239.1615,-226 239.1615,-220 239.1615,-220 239.1615,-208 239.1615,-208 239.1615,-202 245.1615,-196 251.1615,-196 251.1615,-196 293.1659,-196 293.1659,-196 299.1659,-196 305.1659,-202 305.1659,-208 305.1659,-208 305.1659,-220 305.1659,-220 305.1659,-226 299.1659,-232 293.1659,-232"/>
<text text-anchor="middle" x="272.1637" y="-210.7" font-family="Helvetica,sans-Serif" font-size="11.00" fill="#000000">dietary.R</text>
</g>
<!-- raw&#45;&gt;d0 -->
<g id="edge10" class="edge">
<title>raw&#45;&gt;d0</title>
<path fill="none" stroke="#999999" d="M167.6499,-291.6C213.6677,-291.6 261.4591,-291.6 261.4591,-291.6 261.4591,-291.6 261.4591,-238.3901 261.4591,-238.3901"/>
<polygon fill="#999999" stroke="#999999" points="261.4591,-232.3901 264.1592,-238.3901 261.4591,-235.3901 261.4592,-238.3901 261.4592,-238.3901 261.4592,-238.3901 261.4591,-235.3901 258.7592,-238.3902 261.4591,-232.3901 261.4591,-232.3901"/>
</g>
<!-- c1 -->
<g id="node12" class="node">
<title>c1</title>
<path fill="#ffffff" stroke="#5cb87a" d="M487.2545,-332C487.2545,-332 407.7002,-332 407.7002,-332 401.7002,-332 395.7002,-326 395.7002,-320 395.7002,-320 395.7002,-308 395.7002,-308 395.7002,-302 401.7002,-296 407.7002,-296 407.7002,-296 487.2545,-296 487.2545,-296 493.2545,-296 499.2545,-302 499.2545,-308 499.2545,-308 499.2545,-320 499.2545,-320 499.2545,-326 493.2545,-332 487.2545,-332"/>
<text text-anchor="middle" x="447.4774" y="-310.7" font-family="Helvetica,sans-Serif" font-size="11.00" fill="#000000">characteristics.R</text>
</g>
<!-- raw&#45;&gt;c1 -->
<g id="edge11" class="edge">
<title>raw&#45;&gt;c1</title>
<path fill="none" stroke="#999999" d="M167.6371,-314C167.6371,-314 389.735,-314 389.735,-314"/>
<polygon fill="#999999" stroke="#999999" points="395.735,-314 389.735,-316.7001 392.735,-314 389.735,-314.0001 389.735,-314.0001 389.735,-314.0001 392.735,-314 389.7349,-311.3001 395.735,-314 395.735,-314"/>
</g>
<!-- m2 -->
<g id="node3" class="node">
<title>m2</title>
<path fill="#ffffff" stroke="#5cb87a" d="M498.3955,-577C498.3955,-577 396.5592,-577 396.5592,-577 390.5592,-577 384.5592,-571 384.5592,-565 384.5592,-565 384.5592,-553 384.5592,-553 384.5592,-547 390.5592,-541 396.5592,-541 396.5592,-541 498.3955,-541 498.3955,-541 504.3955,-541 510.3955,-547 510.3955,-553 510.3955,-553 510.3955,-565 510.3955,-565 510.3955,-571 504.3955,-577 498.3955,-577"/>
<text text-anchor="middle" x="447.4774" y="-555.7" font-family="Helvetica,sans-Serif" font-size="11.00" fill="#000000">02_data_wrangling.R</text>
</g>
<!-- m1&#45;&gt;m2 -->
<g id="edge1" class="edge">
<title>m1&#45;&gt;m2</title>
<path fill="none" stroke="#999999" d="M327.153,-559C327.153,-559 378.4221,-559 378.4221,-559"/>
<polygon fill="#999999" stroke="#999999" points="384.4221,-559 378.4222,-561.7001 381.4221,-559 378.4221,-559.0001 378.4221,-559.0001 378.4221,-559.0001 381.4221,-559 378.4221,-556.3001 384.4221,-559 384.4221,-559"/>
</g>
<!-- m5 -->
<g id="node4" class="node">
<title>m5</title>
<path fill="#ffffff" stroke="#5cb87a" d="M711.0177,-577C711.0177,-577 595.0632,-577 595.0632,-577 589.0632,-577 583.0632,-571 583.0632,-565 583.0632,-565 583.0632,-553 583.0632,-553 583.0632,-547 589.0632,-541 595.0632,-541 595.0632,-541 711.0177,-541 711.0177,-541 717.0177,-541 723.0177,-547 723.0177,-553 723.0177,-553 723.0177,-565 723.0177,-565 723.0177,-571 717.0177,-577 711.0177,-577"/>
<text text-anchor="middle" x="653.0405" y="-555.7" font-family="Helvetica,sans-Serif" font-size="11.00" fill="#000000">05_heatmap_analysis.R</text>
</g>
<!-- m2&#45;&gt;m5 -->
<g id="edge2" class="edge">
<title>m2&#45;&gt;m5</title>
<path fill="none" stroke="#999999" d="M510.55,-559C510.55,-559 576.916,-559 576.916,-559"/>
<polygon fill="#999999" stroke="#999999" points="582.916,-559 576.916,-561.7001 579.916,-559 576.916,-559.0001 576.916,-559.0001 576.916,-559.0001 579.916,-559 576.9159,-556.3001 582.916,-559 582.916,-559"/>
</g>
<!-- m6 -->
<g id="node5" class="node">
<title>m6</title>
<path fill="#ffffff" stroke="#5cb87a" d="M706.9647,-635C706.9647,-635 599.1162,-635 599.1162,-635 593.1162,-635 587.1162,-629 587.1162,-623 587.1162,-623 587.1162,-611 587.1162,-611 587.1162,-605 593.1162,-599 599.1162,-599 599.1162,-599 706.9647,-599 706.9647,-599 712.9647,-599 718.9647,-605 718.9647,-611 718.9647,-611 718.9647,-623 718.9647,-623 718.9647,-629 712.9647,-635 706.9647,-635"/>
<text text-anchor="middle" x="653.0405" y="-613.7" font-family="Helvetica,sans-Serif" font-size="11.00" fill="#000000">06_save_processed.R</text>
</g>
<!-- m2&#45;&gt;m6 -->
<g id="edge3" class="edge">
<title>m2&#45;&gt;m6</title>
<path fill="none" stroke="#999999" d="M448.4591,-577.0336C448.4591,-594.0597 448.4591,-617 448.4591,-617 448.4591,-617 581.1835,-617 581.1835,-617"/>
<polygon fill="#999999" stroke="#999999" points="587.1835,-617 581.1836,-619.7001 584.1835,-617 581.1835,-617.0001 581.1835,-617.0001 581.1835,-617.0001 584.1835,-617 581.1835,-614.3001 587.1835,-617 587.1835,-617"/>
</g>
<!-- n2 -->
<g id="node13" class="node">
<title>n2</title>
<path fill="#ffffff" stroke="#5b8def" d="M698.547,-420.402C698.547,-420.402 607.5339,-420.402 607.5339,-420.402 601.5339,-420.402 595.5339,-414.402 595.5339,-408.402 595.5339,-408.402 595.5339,-391.598 595.5339,-391.598 595.5339,-385.598 601.5339,-379.598 607.5339,-379.598 607.5339,-379.598 698.547,-379.598 698.547,-379.598 704.547,-379.598 710.547,-385.598 710.547,-391.598 710.547,-391.598 710.547,-408.402 710.547,-408.402 710.547,-414.402 704.547,-420.402 698.547,-420.402"/>
<text text-anchor="middle" x="653.0405" y="-403.3" font-family="Helvetica,sans-Serif" font-size="11.00" fill="#000000">1. merge_files.R</text>
<text text-anchor="middle" x="653.0405" y="-390.1" font-family="Helvetica,sans-Serif" font-size="11.00" fill="#000000">(combine domains)</text>
</g>
<!-- m2&#45;&gt;n2 -->
<g id="edge12" class="edge">
<title>m2&#45;&gt;n2</title>
<path fill="none" stroke="#999999" d="M507.4591,-540.7419C507.4591,-500.9813 507.4591,-410.1 507.4591,-410.1 507.4591,-410.1 589.5028,-410.1 589.5028,-410.1"/>
<polygon fill="#999999" stroke="#999999" points="595.5028,-410.1 589.5029,-412.8001 592.5028,-410.1 589.5028,-410.1001 589.5028,-410.1001 589.5028,-410.1001 592.5028,-410.1 589.5028,-407.4001 595.5028,-410.1 595.5028,-410.1"/>
</g>
<!-- stats -->
<g id="node17" class="node">
<title>stats</title>
<defs>
<linearGradient id="l_1" gradientUnits="userSpaceOnUse" x1="861.2271" y1="-233.598" x2="861.2271" y2="-274.402" >
<stop offset="0" style="stop-color:#fbe0e1;stop-opacity:1.;"/>
<stop offset="1" style="stop-color:#f5bfc2;stop-opacity:1.;"/>
</linearGradient>
</defs>
<path fill="url(#l_1)" stroke="#e0747a" d="M887.0174,-274.402C887.0174,-274.402 835.4368,-274.402 835.4368,-274.402 829.4368,-274.402 823.4368,-268.402 823.4368,-262.402 823.4368,-262.402 823.4368,-245.598 823.4368,-245.598 823.4368,-239.598 829.4368,-233.598 835.4368,-233.598 835.4368,-233.598 887.0174,-233.598 887.0174,-233.598 893.0174,-233.598 899.0174,-239.598 899.0174,-245.598 899.0174,-245.598 899.0174,-262.402 899.0174,-262.402 899.0174,-268.402 893.0174,-274.402 887.0174,-274.402"/>
<text text-anchor="middle" x="861.2271" y="-257.3" font-family="Helvetica,sans-Serif" font-size="11.00" fill="#000000">make stats</text>
<text text-anchor="middle" x="861.2271" y="-244.1" font-family="Helvetica,sans-Serif" font-size="11.00" fill="#000000">Quarto site</text>
</g>
<!-- m2&#45;&gt;stats -->
<g id="edge18" class="edge">
<title>m2&#45;&gt;stats</title>
<path fill="none" stroke="#999999" d="M503.4591,-540.5936C503.4591,-474.063 503.4591,-249.96 503.4591,-249.96 503.4591,-249.96 817.2784,-249.96 817.2784,-249.96"/>
<polygon fill="#999999" stroke="#999999" points="823.2784,-249.96 817.2783,-252.6599 820.2784,-249.96 817.2784,-249.9599 817.2784,-249.9599 817.2784,-249.9599 820.2784,-249.96 817.2784,-247.2599 823.2784,-249.96 823.2784,-249.96"/>
</g>
<!-- m5&#45;&gt;stats -->
<g id="edge19" class="edge">
<title>m5&#45;&gt;stats</title>
<path fill="none" stroke="#999999" d="M723.2831,-559C745.0601,-559 763.4591,-559 763.4591,-559 763.4591,-559 763.4591,-266.12 763.4591,-266.12 763.4591,-266.12 817.4274,-266.12 817.4274,-266.12"/>
<polygon fill="#999999" stroke="#999999" points="823.4274,-266.12 817.4275,-268.8201 820.4274,-266.12 817.4274,-266.1201 817.4274,-266.1201 817.4274,-266.1201 820.4274,-266.12 817.4274,-263.4201 823.4274,-266.12 823.4274,-266.12"/>
</g>
<!-- d1 -->
<g id="node7" class="node">
<title>d1</title>
<path fill="#ffffff" stroke="#5cb87a" d="M506.1944,-174C506.1944,-174 388.7603,-174 388.7603,-174 382.7603,-174 376.7603,-168 376.7603,-162 376.7603,-162 376.7603,-150 376.7603,-150 376.7603,-144 382.7603,-138 388.7603,-138 388.7603,-138 506.1944,-138 506.1944,-138 512.1944,-138 518.1944,-144 518.1944,-150 518.1944,-150 518.1944,-162 518.1944,-162 518.1944,-168 512.1944,-174 506.1944,-174"/>
<text text-anchor="middle" x="447.4774" y="-152.7" font-family="Helvetica,sans-Serif" font-size="11.00" fill="#000000">01_prepare_eda_data.R</text>
</g>
<!-- d0&#45;&gt;d1 -->
<g id="edge4" class="edge">
<title>d0&#45;&gt;d1</title>
<path fill="none" stroke="#999999" d="M305.2525,-220C337.421,-220 381.4591,-220 381.4591,-220 381.4591,-220 381.4591,-180.1686 381.4591,-180.1686"/>
<polygon fill="#999999" stroke="#999999" points="381.4591,-174.1686 384.1592,-180.1686 381.4591,-177.1686 381.4592,-180.1686 381.4592,-180.1686 381.4592,-180.1686 381.4591,-177.1686 378.7592,-180.1687 381.4591,-174.1686 381.4591,-174.1686"/>
</g>
<!-- d0&#45;&gt;n2 -->
<g id="edge13" class="edge">
<title>d0&#45;&gt;n2</title>
<path fill="none" stroke="#999999" d="M283.4591,-232.1731C283.4591,-278.9755 283.4591,-400 283.4591,-400 283.4591,-400 589.2934,-400 589.2934,-400"/>
<polygon fill="#999999" stroke="#999999" points="595.2934,-400 589.2934,-402.7001 592.2934,-400 589.2934,-400.0001 589.2934,-400.0001 589.2934,-400.0001 592.2934,-400 589.2933,-397.3001 595.2934,-400 595.2934,-400"/>
</g>
<!-- d2 -->
<g id="node8" class="node">
<title>d2</title>
<path fill="#ffffff" stroke="#5cb87a" d="M716.6287,-58C716.6287,-58 589.4522,-58 589.4522,-58 583.4522,-58 577.4522,-52 577.4522,-46 577.4522,-46 577.4522,-34 577.4522,-34 577.4522,-28 583.4522,-22 589.4522,-22 589.4522,-22 716.6287,-22 716.6287,-22 722.6287,-22 728.6287,-28 728.6287,-34 728.6287,-34 728.6287,-46 728.6287,-46 728.6287,-52 722.6287,-58 716.6287,-58"/>
<text text-anchor="middle" x="653.0405" y="-36.7" font-family="Helvetica,sans-Serif" font-size="11.00" fill="#000000">02_correlation_heatmap.R</text>
</g>
<!-- d1&#45;&gt;d2 -->
<g id="edge5" class="edge">
<title>d1&#45;&gt;d2</title>
<path fill="none" stroke="#999999" d="M424.4591,-137.875C424.4591,-105.25 424.4591,-40 424.4591,-40 424.4591,-40 571.2437,-40 571.2437,-40"/>
<polygon fill="#999999" stroke="#999999" points="577.2437,-40 571.2437,-42.7001 574.2437,-40 571.2437,-40.0001 571.2437,-40.0001 571.2437,-40.0001 574.2437,-40 571.2436,-37.3001 577.2437,-40 577.2437,-40"/>
</g>
<!-- d3 -->
<g id="node9" class="node">
<title>d3</title>
<path fill="#ffffff" stroke="#5cb87a" d="M706.241,-116C706.241,-116 599.8399,-116 599.8399,-116 593.8399,-116 587.8399,-110 587.8399,-104 587.8399,-104 587.8399,-92 587.8399,-92 587.8399,-86 593.8399,-80 599.8399,-80 599.8399,-80 706.241,-80 706.241,-80 712.241,-80 718.241,-86 718.241,-92 718.241,-92 718.241,-104 718.241,-104 718.241,-110 712.241,-116 706.241,-116"/>
<text text-anchor="middle" x="653.0405" y="-94.7" font-family="Helvetica,sans-Serif" font-size="11.00" fill="#000000">03_scaled_boxplots.R</text>
</g>
<!-- d1&#45;&gt;d3 -->
<g id="edge6" class="edge">
<title>d1&#45;&gt;d3</title>
<path fill="none" stroke="#999999" d="M471.4591,-137.9664C471.4591,-120.9403 471.4591,-98 471.4591,-98 471.4591,-98 581.742,-98 581.742,-98"/>
<polygon fill="#999999" stroke="#999999" points="587.742,-98 581.742,-100.7001 584.742,-98 581.742,-98.0001 581.742,-98.0001 581.742,-98.0001 584.742,-98 581.7419,-95.3001 587.742,-98 587.742,-98"/>
</g>
<!-- d4 -->
<g id="node10" class="node">
<title>d4</title>
<path fill="#ffffff" stroke="#5cb87a" d="M707.1921,-174C707.1921,-174 598.8888,-174 598.8888,-174 592.8888,-174 586.8888,-168 586.8888,-162 586.8888,-162 586.8888,-150 586.8888,-150 586.8888,-144 592.8888,-138 598.8888,-138 598.8888,-138 707.1921,-138 707.1921,-138 713.1921,-138 719.1921,-144 719.1921,-150 719.1921,-150 719.1921,-162 719.1921,-162 719.1921,-168 713.1921,-174 707.1921,-174"/>
<text text-anchor="middle" x="653.0405" y="-152.7" font-family="Helvetica,sans-Serif" font-size="11.00" fill="#000000">04_group_kde_plots.R</text>
</g>
<!-- d1&#45;&gt;d4 -->
<g id="edge7" class="edge">
<title>d1&#45;&gt;d4</title>
<path fill="none" stroke="#999999" d="M518.2205,-156C518.2205,-156 580.6659,-156 580.6659,-156"/>
<polygon fill="#999999" stroke="#999999" points="586.6659,-156 580.6659,-158.7001 583.6659,-156 580.6659,-156.0001 580.6659,-156.0001 580.6659,-156.0001 583.6659,-156 580.6658,-153.3001 586.6659,-156 586.6659,-156"/>
</g>
<!-- d5 -->
<g id="node11" class="node">
<title>d5</title>
<path fill="#ffffff" stroke="#5cb87a" d="M711.0155,-232C711.0155,-232 595.0654,-232 595.0654,-232 589.0654,-232 583.0654,-226 583.0654,-220 583.0654,-220 583.0654,-208 583.0654,-208 583.0654,-202 589.0654,-196 595.0654,-196 595.0654,-196 711.0155,-196 711.0155,-196 717.0155,-196 723.0155,-202 723.0155,-208 723.0155,-208 723.0155,-220 723.0155,-220 723.0155,-226 717.0155,-232 711.0155,-232"/>
<text text-anchor="middle" x="653.0405" y="-210.7" font-family="Helvetica,sans-Serif" font-size="11.00" fill="#000000">05_deficiency_barplot.R</text>
</g>
<!-- d1&#45;&gt;d5 -->
<g id="edge8" class="edge">
<title>d1&#45;&gt;d5</title>
<path fill="none" stroke="#999999" d="M514.4591,-174.1871C514.4591,-189.1824 514.4591,-208 514.4591,-208 514.4591,-208 576.9378,-208 576.9378,-208"/>
<polygon fill="#999999" stroke="#999999" points="582.9378,-208 576.9378,-210.7001 579.9378,-208 576.9378,-208.0001 576.9378,-208.0001 576.9378,-208.0001 579.9378,-208 576.9377,-205.3001 582.9378,-208 582.9378,-208"/>
</g>
<!-- d2&#45;&gt;stats -->
<g id="edge20" class="edge">
<title>d2&#45;&gt;stats</title>
<path fill="none" stroke="#999999" d="M728.7676,-40C794.9238,-40 880.4591,-40 880.4591,-40 880.4591,-40 880.4591,-227.4808 880.4591,-227.4808"/>
<polygon fill="#999999" stroke="#999999" points="880.4591,-233.4808 877.7592,-227.4807 880.4591,-230.4808 880.4592,-227.4808 880.4592,-227.4808 880.4592,-227.4808 880.4591,-230.4808 883.1592,-227.4808 880.4591,-233.4808 880.4591,-233.4808"/>
</g>
<!-- d3&#45;&gt;stats -->
<g id="edge21" class="edge">
<title>d3&#45;&gt;stats</title>
<path fill="none" stroke="#999999" d="M718.4136,-98C779.5359,-98 861.4591,-98 861.4591,-98 861.4591,-98 861.4591,-227.6057 861.4591,-227.6057"/>
<polygon fill="#999999" stroke="#999999" points="861.4591,-233.6057 858.7592,-227.6057 861.4591,-230.6057 861.4592,-227.6057 861.4592,-227.6057 861.4592,-227.6057 861.4591,-230.6057 864.1592,-227.6058 861.4591,-233.6057 861.4591,-233.6057"/>
</g>
<!-- d4&#45;&gt;stats -->
<g id="edge22" class="edge">
<title>d4&#45;&gt;stats</title>
<path fill="none" stroke="#999999" d="M719.2899,-156C773.9128,-156 842.4591,-156 842.4591,-156 842.4591,-156 842.4591,-227.6943 842.4591,-227.6943"/>
<polygon fill="#999999" stroke="#999999" points="842.4591,-233.6943 839.7592,-227.6943 842.4591,-230.6943 842.4592,-227.6943 842.4592,-227.6943 842.4592,-227.6943 842.4591,-230.6943 845.1592,-227.6944 842.4591,-233.6943 842.4591,-233.6943"/>
</g>
<!-- d5&#45;&gt;stats -->
<g id="edge23" class="edge">
<title>d5&#45;&gt;stats</title>
<path fill="none" stroke="#999999" d="M717.4591,-232.1289C717.4591,-237.454 717.4591,-241.88 717.4591,-241.88 717.4591,-241.88 817.0774,-241.88 817.0774,-241.88"/>
<polygon fill="#999999" stroke="#999999" points="823.0774,-241.88 817.0774,-244.5801 820.0774,-241.88 817.0774,-241.8801 817.0774,-241.8801 817.0774,-241.8801 820.0774,-241.88 817.0773,-239.1801 823.0774,-241.88 823.0774,-241.88"/>
</g>
<!-- c1&#45;&gt;n2 -->
<g id="edge14" class="edge">
<title>c1&#45;&gt;n2</title>
<path fill="none" stroke="#999999" d="M448.4591,-332.3733C448.4591,-354.8361 448.4591,-389.9 448.4591,-389.9 448.4591,-389.9 589.5087,-389.9 589.5087,-389.9"/>
<polygon fill="#999999" stroke="#999999" points="595.5087,-389.9 589.5088,-392.6001 592.5087,-389.9 589.5087,-389.9001 589.5087,-389.9001 589.5087,-389.9001 592.5087,-389.9 589.5087,-387.2001 595.5087,-389.9 595.5087,-389.9"/>
</g>
<!-- c1&#45;&gt;stats -->
<g id="edge24" class="edge">
<title>c1&#45;&gt;stats</title>
<path fill="none" stroke="#999999" d="M499.4892,-314C610.6762,-314 861.4591,-314 861.4591,-314 861.4591,-314 861.4591,-280.3133 861.4591,-280.3133"/>
<polygon fill="#999999" stroke="#999999" points="861.4591,-274.3133 864.1592,-280.3132 861.4591,-277.3133 861.4592,-280.3133 861.4592,-280.3133 861.4592,-280.3133 861.4591,-277.3133 858.7592,-280.3133 861.4591,-274.3133 861.4591,-274.3133"/>
</g>
<!-- app -->
<g id="node16" class="node">
<title>app</title>
<defs>
<linearGradient id="l_2" gradientUnits="userSpaceOnUse" x1="861.2271" y1="-379.598" x2="861.2271" y2="-420.402" >
<stop offset="0" style="stop-color:#fbe0e1;stop-opacity:1.;"/>
<stop offset="1" style="stop-color:#f5bfc2;stop-opacity:1.;"/>
</linearGradient>
</defs>
<path fill="url(#l_2)" stroke="#e0747a" d="M901.2579,-420.402C901.2579,-420.402 821.1963,-420.402 821.1963,-420.402 815.1963,-420.402 809.1963,-414.402 809.1963,-408.402 809.1963,-408.402 809.1963,-391.598 809.1963,-391.598 809.1963,-385.598 815.1963,-379.598 821.1963,-379.598 821.1963,-379.598 901.2579,-379.598 901.2579,-379.598 907.2579,-379.598 913.2579,-385.598 913.2579,-391.598 913.2579,-391.598 913.2579,-408.402 913.2579,-408.402 913.2579,-414.402 907.2579,-420.402 901.2579,-420.402"/>
<text text-anchor="middle" x="861.2271" y="-403.3" font-family="Helvetica,sans-Serif" font-size="11.00" fill="#000000">make app</text>
<text text-anchor="middle" x="861.2271" y="-390.1" font-family="Helvetica,sans-Serif" font-size="11.00" fill="#000000">Shiny dashboard</text>
</g>
<!-- n2&#45;&gt;app -->
<g id="edge16" class="edge">
<title>n2&#45;&gt;app</title>
<path fill="none" stroke="#999999" d="M710.7556,-400C710.7556,-400 803.0957,-400 803.0957,-400"/>
<polygon fill="#999999" stroke="#999999" points="809.0957,-400 803.0958,-402.7001 806.0957,-400 803.0957,-400.0001 803.0957,-400.0001 803.0957,-400.0001 806.0957,-400 803.0957,-397.3001 809.0957,-400 809.0957,-400"/>
</g>
<!-- n2&#45;&gt;stats -->
<g id="edge17" class="edge">
<title>n2&#45;&gt;stats</title>
<path fill="none" stroke="#999999" d="M653.4591,-379.6606C653.4591,-340.4074 653.4591,-258.04 653.4591,-258.04 653.4591,-258.04 817.1192,-258.04 817.1192,-258.04"/>
<polygon fill="#999999" stroke="#999999" points="823.1192,-258.04 817.1192,-260.7399 820.1192,-258.04 817.1192,-258.0399 817.1192,-258.0399 817.1192,-258.0399 820.1192,-258.04 817.1193,-255.3399 823.1192,-258.04 823.1192,-258.04"/>
</g>
<!-- n1 -->
<g id="node14" class="node">
<title>n1</title>
<path fill="#ffffff" stroke="#5b8def" d="M725.9498,-482.402C725.9498,-482.402 580.1311,-482.402 580.1311,-482.402 574.1311,-482.402 568.1311,-476.402 568.1311,-470.402 568.1311,-470.402 568.1311,-453.598 568.1311,-453.598 568.1311,-447.598 574.1311,-441.598 580.1311,-441.598 580.1311,-441.598 725.9498,-441.598 725.9498,-441.598 731.9498,-441.598 737.9498,-447.598 737.9498,-453.598 737.9498,-453.598 737.9498,-470.402 737.9498,-470.402 737.9498,-476.402 731.9498,-482.402 725.9498,-482.402"/>
<text text-anchor="middle" x="653.0405" y="-465.3" font-family="Helvetica,sans-Serif" font-size="11.00" fill="#000000">2. normalize_participant_ids.R</text>
<text text-anchor="middle" x="653.0405" y="-452.1" font-family="Helvetica,sans-Serif" font-size="11.00" fill="#000000">(standalone ID audit)</text>
</g>
<!-- audit -->
<g id="node15" class="node">
<title>audit</title>
<text text-anchor="middle" x="861.2271" y="-465" font-family="Helvetica,sans-Serif" font-size="10.00" fill="#000000">participant_id_normalization</text>
<text text-anchor="middle" x="861.2271" y="-453" font-family="Helvetica,sans-Serif" font-size="10.00" fill="#000000">_audit.csv</text>
</g>
<!-- n1&#45;&gt;audit -->
<g id="edge15" class="edge">
<title>n1&#45;&gt;audit</title>
<path fill="none" stroke="#999999" d="M738.0182,-462C738.0182,-462 781.854,-462 781.854,-462"/>
<polygon fill="#999999" stroke="#999999" points="787.854,-462 781.8541,-464.7001 784.854,-462 781.854,-462.0001 781.854,-462.0001 781.854,-462.0001 784.854,-462 781.854,-459.3001 787.854,-462 787.854,-462"/>
</g>
</g>
</svg>

